# xmcd CD database file
#
# Track frame offsets:
#	150
#	19277
#	33304
#	46206
#	67894
#	89271
#	105431
#	122361
#	134959
#	149436
#	175838
#	196776
#	213916
#	239763
#
# Disc length: 3431 seconds
#
# Revision: 0
# Processed by: cddbd v1.5.2PL0 Copyright (c) Steve Scherf et al.
# Submitted via: CDex 1.51
#
DISCID=c40d650e
DTITLE=Kenny Klein - Moons and Muses
DYEAR=2009
DGENRE=New Age
TTITLE0=The Mysterious life of Robin Goodfellow
TTITLE1=Barley Moon
TTITLE2=Merry up May Song
TTITLE3=The Selkie
TTITLE4=The Whales
TTITLE5=The Raggle Taggle Gypsies
TTITLE6=The Old Woman was a Gypsy
TTITLE7=Oh No John
TTITLE8=Rowen and Braken
TTITLE9=Muses
TTITLE10=Appleby Fair
TTITLE11=Keep your legs Together Jenny
TTITLE12=Reynardine
TTITLE13=Gypsy love Song
EXTD=YEAR: 2009
EXTT0=
EXTT1=
EXTT2=
EXTT3=
EXTT4=
EXTT5=
EXTT6=
EXTT7=
EXTT8=
EXTT9=
EXTT10=
EXTT11=
EXTT12=
EXTT13=
PLAYORDER=
